<svg xmlns="http://www.w3.org/2000/svg" xmlns:xlink="http://www.w3.org/1999/xlink" width="19.04in" height="12.95in" viewBox="0 0 1370.99 932.42"><defs><style>.cls-1,.cls-97{fill:#999;}.cls-12,.cls-2,.cls-4,.cls-44,.cls-48,.cls-49,.cls-5,.cls-51,.cls-94{fill:none;}.cls-2{stroke:#150232;}.cls-3,.cls-50,.cls-95{fill:#fff;}.cls-3{stroke:#e30b13;}.cls-4,.cls-44,.cls-5{stroke:#000;}.cls-12,.cls-4,.cls-48,.cls-49,.cls-5{stroke-linecap:round;stroke-linejoin:round;}.cls-4{stroke-width:0.12px;}.cls-5{stroke-width:0;}.cls-6{font-size:25px;}.cls-13,.cls-20,.cls-27,.cls-29,.cls-36,.cls-45,.cls-6,.cls-74,.cls-88{fill:#1d1d1b;}.cls-13,.cls-20,.cls-27,.cls-29,.cls-30,.cls-32,.cls-36,.cls-40,.cls-45,.cls-53,.cls-59,.cls-6,.cls-60,.cls-61,.cls-62,.cls-63,.cls-65,.cls-67,.cls-68,.cls-70,.cls-74,.cls-85,.cls-87,.cls-88,.cls-89,.cls-93,.cls-97{font-family:MyriadPro-Regular, Myriad Pro;}.cls-7{letter-spacing:-0.05em;}.cls-8{letter-spacing:0em;}.cls-9{letter-spacing:0em;}.cls-10{letter-spacing:-0.01em;}.cls-11{letter-spacing:0em;}.cls-12,.cls-94{stroke:#1d1d1b;}.cls-12,.cls-44{stroke-width:0.25px;}.cls-13,.cls-30,.cls-53,.cls-59,.cls-60,.cls-61,.cls-62,.cls-63,.cls-65,.cls-67,.cls-68,.cls-70,.cls-85,.cls-87,.cls-89,.cls-93{font-size:12px;}.cls-14{letter-spacing:-0.01em;}.cls-15{letter-spacing:-0.01em;}.cls-16{letter-spacing:0em;}.cls-17{letter-spacing:-0.01em;}.cls-18{letter-spacing:-0.01em;}.cls-19{letter-spacing:0em;}.cls-20{font-size:18px;}.cls-21{letter-spacing:-0.01em;}.cls-22{letter-spacing:0em;}.cls-23{letter-spacing:0em;}.cls-24{letter-spacing:0.01em;}.cls-25{letter-spacing:0.01em;}.cls-26{letter-spacing:0.01em;}.cls-27,.cls-45,.cls-74,.cls-97{font-size:21px;}.cls-27,.cls-96{letter-spacing:-0.01em;}.cls-28{letter-spacing:0em;}.cls-29{font-size:10px;}.cls-30,.cls-32,.cls-40{fill:#7f7b7a;}.cls-31{letter-spacing:-0.01em;}.cls-32,.cls-36{font-size:6px;}.cls-33{letter-spacing:-0.02em;}.cls-34{letter-spacing:-0.01em;}.cls-35{letter-spacing:0em;}.cls-37{letter-spacing:-0.01em;}.cls-38{letter-spacing:0.01em;}.cls-39{letter-spacing:0em;}.cls-40{font-size:9px;}.cls-41{letter-spacing:0em;}.cls-42{letter-spacing:0em;}.cls-43{letter-spacing:0.01em;}.cls-45{letter-spacing:-0.01em;}.cls-46{letter-spacing:0em;}.cls-47{letter-spacing:-0.01em;}.cls-48,.cls-49{stroke:#13110c;}.cls-48{stroke-width:0.12px;}.cls-49{stroke-width:0.24px;}.cls-50{stroke:#309337;}.cls-52,.cls-53{fill:#e30b13;}.cls-54{letter-spacing:-0.04em;}.cls-55{letter-spacing:-0.03em;}.cls-56{letter-spacing:0em;}.cls-57{letter-spacing:-0.01em;}.cls-58{letter-spacing:-0.01em;}.cls-102,.cls-59,.cls-65,.cls-67,.cls-69{opacity:0.5;}.cls-59{fill:#a53b00;}.cls-60{fill:#f7aa00;}.cls-61{fill:#14152d;}.cls-62{fill:#c23c8e;}.cls-63{fill:#323230;}.cls-64{fill:#333;}.cls-65{fill:#ff6700;}.cls-66{fill:#7c7c7c;}.cls-67{fill:#0d495e;}.cls-68{fill:#839614;}.cls-69{fill:#989898;}.cls-70{fill:#6c6d6d;}.cls-71{letter-spacing:-0.01em;}.cls-72{letter-spacing:0em;}.cls-73{letter-spacing:0em;}.cls-75{letter-spacing:0em;}.cls-76{letter-spacing:-0.01em;}.cls-77{letter-spacing:0.02em;}.cls-78{letter-spacing:0em;}.cls-79{letter-spacing:-0.01em;}.cls-80{letter-spacing:-0.01em;}.cls-81{fill:#545454;}.cls-82{letter-spacing:-0.01em;}.cls-83{letter-spacing:-0.01em;}.cls-84{letter-spacing:0.02em;}.cls-85{fill:#719841;}.cls-86{letter-spacing:-0.01em;}.cls-87{fill:#3ec0f0;}.cls-88{font-size:24px;}.cls-89{fill:#636;}.cls-90{fill:#595959;}.cls-91{letter-spacing:-0.01em;}.cls-92{letter-spacing:0em;}.cls-93{fill:#993415;}.cls-94{stroke-miterlimit:10;}.cls-98{letter-spacing:0em;}.cls-99{letter-spacing:-0.03em;}.cls-100{letter-spacing:-0.02em;}.cls-101{letter-spacing:0em;}.cls-102{fill:#060693;}</style><symbol id="lights-4" data-name="lights" viewBox="0 0 14.16 24"><path class="cls-1" d="M7.17,0H7C6.18,0,0,.25,0,8c0,3.39,4.14,9.59,4.14,11.24H10c0-1.66,4.12-7.85,4.12-11.24C14.16.25,8,0,7.17,0ZM8.75,17.55H8.1v-4.3h-2v4.3H5.43c-.28-.75-.72-1.68-1.31-2.9C3.08,12.52,1.67,9.59,1.67,8c0-2.63.81-4.47,2.41-5.47A6,6,0,0,1,7,1.67h.17a6,6,0,0,1,2.92.84c1.6,1,2.41,2.84,2.41,5.47,0,1.62-1.41,4.55-2.44,6.69C9.47,15.88,9,16.81,8.75,17.55Z"/><rect class="cls-1" x="4.14" y="20.06" width="5.9" height="1.55"/><rect class="cls-1" x="5.63" y="22.45" width="2.94" height="1.55"/></symbol></defs><title>Lights</title><g id="Layer_1" data-name="Layer 1"><rect class="cls-2" x="0.5" y="0.5" width="1369.99" height="931.42"/></g><g id="Projects"><rect class="cls-3" x="141.36" y="624.32" width="15.07" height="10.79"/><polyline class="cls-4" points="537.74 513.02 564.16 513.02 564.16 514.05 537.74 514.05 537.74 513.02"/><line class="cls-4" x1="574.69" y1="510.96" x2="551.57" y2="510.96"/><line class="cls-5" x1="21.19" y1="937.7" x2="21.19" y2="937.7"/><line class="cls-4" x1="551.57" y1="512.19" x2="551.57" y2="509.51"/><line class="cls-5" x1="21.19" y1="937.7" x2="21.19" y2="937.7"/><line class="cls-4" x1="574.69" y1="512.19" x2="574.69" y2="509.51"/><line class="cls-5" x1="21.19" y1="937.7" x2="21.19" y2="937.7"/><line class="cls-4" x1="549.92" y1="512.19" x2="576.35" y2="512.19"/><line class="cls-5" x1="21.19" y1="937.7" x2="21.19" y2="937.7"/><line class="cls-4" x1="576.35" y1="509.51" x2="549.92" y2="509.51"/><line class="cls-5" x1="21.19" y1="937.7" x2="21.19" y2="937.7"/><line class="cls-4" x1="549.92" y1="512.19" x2="549.92" y2="509.51"/><line class="cls-5" x1="21.19" y1="937.7" x2="21.19" y2="937.7"/><text x="0.49" y="-0.68"></text><line class="cls-5" x1="21.19" y1="937.7" x2="21.19" y2="937.7"/><line class="cls-4" x1="524.54" y1="509.55" x2="537.56" y2="509.55"/><text class="cls-6" transform="translate(403.29 705.48) scale(0.71 1)"><tspan xml:space="preserve">    ITP  </tspan><tspan class="cls-7" x="63.5" y="0">F</tspan><tspan class="cls-8" x="74.55" y="0">all 2014 </tspan><tspan class="cls-9" x="160.3" y="0">R</tspan><tspan x="173.85" y="0">en</tspan><tspan class="cls-10" x="200.24" y="0">o</tspan><tspan class="cls-11" x="213.8" y="0">va</tspan><tspan x="237.67" y="0">tions </tspan></text><rect class="cls-12" x="238.16" y="237.32" width="10.67" height="34.67"/><rect class="cls-12" x="212.16" y="262.08" width="26" height="9.9"/><rect class="cls-12" x="189.49" y="470.65" width="10.67" height="42"/><rect class="cls-12" x="163.49" y="503.32" width="26" height="9.33"/><rect class="cls-12" x="164.13" y="470.3" width="26" height="9.33"/><rect class="cls-12" x="205.98" y="359.81" width="42" height="10.67"/><rect class="cls-12" x="205.98" y="333.81" width="9.33" height="26"/><rect class="cls-12" x="239" y="334.45" width="9.33" height="26"/><rect class="cls-12" x="194.16" y="297.98" width="52.67" height="14.67"/><text class="cls-13" transform="translate(1037.16 208.34)"><tspan class="cls-14">C</tspan><tspan x="6.83" y="0">on</tspan><tspan class="cls-15" x="20.08" y="0">f</tspan><tspan class="cls-16" x="23.42" y="0">e</tspan><tspan class="cls-17" x="29.44" y="0">r</tspan><tspan class="cls-16" x="33.24" y="0">en</tspan><tspan class="cls-18" x="45.91" y="0">c</tspan><tspan x="51.22" y="0">e </tspan><tspan class="cls-19" x="59.77" y="0">R</tspan><tspan x="66.28" y="0">oom</tspan><tspan x="0" y="14.4">442</tspan></text><text class="cls-20" transform="translate(1217.61 212.8)"><tspan class="cls-21">r</tspan><tspan class="cls-22" x="5.71" y="0">eside</tspan><tspan class="cls-23" x="45.23" y="0">n</tspan><tspan x="55.15" y="0">ts</tspan><tspan x="0" y="21.6">441</tspan></text><text class="cls-13" transform="translate(1274.89 392.7)">adjun<tspan class="cls-24" x="28.74" y="0">c</tspan><tspan x="34.27" y="0">t sui</tspan><tspan class="cls-18" x="54.96" y="0">t</tspan><tspan class="cls-16" x="58.86" y="0">e</tspan><tspan x="0" y="14.4">440</tspan></text><text class="cls-13" transform="translate(911.74 382.58)"><tspan class="cls-25">R<tspan class="cls-16" x="6.58" y="0">m 15</tspan></tspan><tspan x="0" y="14.4">445</tspan></text><text class="cls-13" transform="translate(377.65 405.12)">mechanical</text><text class="cls-13" transform="translate(584.34 570.25)"><tspan class="cls-25">R<tspan class="cls-16" x="6.58" y="0">m 20</tspan></tspan><tspan x="0" y="14.4">406</tspan></text><text class="cls-13" transform="translate(1028.08 579.72)"><tspan class="cls-26">M</tspan><tspan x="9.72" y="0">eeting </tspan><tspan class="cls-19" x="44.44" y="0">R</tspan><tspan x="50.94" y="0">oom</tspan><tspan x="0" y="14.4">402</tspan></text><text class="cls-13" transform="translate(1240.16 494.14)">m<tspan class="cls-23" x="10.01" y="0">a</tspan><tspan x="15.74" y="0">tt b</tspan></text><text class="cls-13" transform="translate(1282.11 688.94)">dan o<tspan x="0" y="14.4">401</tspan></text><text class="cls-13" transform="translate(152.25 494.19)">john d</text><text class="cls-27" transform="translate(772.08 215.48)">L<tspan class="cls-28" x="9.62" y="0">ounge</tspan></text><line class="cls-4" x1="1119.06" y1="565.07" x2="1121.74" y2="565.07"/><line class="cls-4" x1="1009.08" y1="508.93" x2="1121.64" y2="508.93"/><line class="cls-4" x1="1009.08" y1="511.57" x2="1121.44" y2="511.68"/><line class="cls-4" x1="1121.69" y1="565.01" x2="1121.69" y2="510.44"/><line class="cls-4" x1="1119" y1="511.05" x2="1119" y2="565.06"/><line class="cls-4" x1="1119.06" y1="563.41" x2="1121.74" y2="563.41"/><line class="cls-4" x1="1120.3" y1="563.41" x2="1120.3" y2="540.29"/><polyline class="cls-4" points="1118.64 553.3 1118.64 579.72 1117.61 579.72 1117.61 553.3 1118.64 553.3"/><line class="cls-4" x1="1118.95" y1="540.29" x2="1121.64" y2="540.29"/><line class="cls-4" x1="1121.79" y1="643.66" x2="1119.1" y2="643.66"/><line class="cls-4" x1="1121.79" y1="615.8" x2="1119.1" y2="615.8"/><line class="cls-4" x1="1119" y1="615.8" x2="1119" y2="670.37"/><line class="cls-4" x1="1121.69" y1="669.81" x2="1121.69" y2="615.8"/><line class="cls-4" x1="1120.3" y1="618.13" x2="1120.3" y2="641.25"/><polyline class="cls-4" points="1117.35 634.17 1117.35 607.74 1118.38 607.74 1118.38 634.17 1117.35 634.17"/><line class="cls-4" x1="1121.79" y1="641.31" x2="1119.1" y2="641.31"/><line class="cls-4" x1="1121.64" y1="508.93" x2="1121.64" y2="511.68"/><text x="0.49" y="-0.68"></text><line class="cls-4" x1="1121.64" y1="618.13" x2="1118.95" y2="618.13"/><text class="cls-29" transform="translate(923.14 200.08)">gabe<tspan x="0" y="12">and benedetta</tspan><tspan x="0" y="24">444</tspan></text><rect class="cls-12" x="408.12" y="304.9" width="10.67" height="34.67"/><rect class="cls-12" x="382.12" y="304.9" width="26" height="9.9"/><text class="cls-30" transform="translate(159.94 621.65)">Laser <tspan class="cls-31" x="28.68" y="0">C</tspan><tspan class="cls-16" x="35.5" y="0">ut</tspan><tspan class="cls-18" x="46.08" y="0">t</tspan><tspan class="cls-16" x="49.98" y="0">er</tspan></text><text class="cls-32" transform="translate(641.59 304.13)"><tspan class="cls-33">P</tspan><tspan class="cls-19" x="3.1" y="0">r</tspan><tspan x="5.08" y="0">i</tspan><tspan class="cls-23" x="6.49" y="0">n</tspan><tspan class="cls-34" x="9.79" y="0">t</tspan><tspan class="cls-35" x="11.74" y="0">er </tspan><tspan x="0" y="7.2">128.122.151.95</tspan></text><text class="cls-32" transform="translate(1207.69 496.19)"><tspan class="cls-33">P</tspan><tspan class="cls-19" x="3.1" y="0">r</tspan><tspan x="5.08" y="0">i</tspan><tspan class="cls-23" x="6.49" y="0">n</tspan><tspan class="cls-34" x="9.79" y="0">t</tspan><tspan class="cls-35" x="11.74" y="0">er </tspan><tspan x="0" y="7.2">128.122.151.81</tspan></text><text class="cls-36" transform="translate(1009.98 384.35)"><tspan class="cls-37">C</tspan><tspan x="3.44" y="0">abinet</tspan></text><text class="cls-36" transform="translate(1074.53 376.39)">Ele<tspan class="cls-38" x="7.37" y="0">c</tspan><tspan x="10.14" y="0">t</tspan><tspan class="cls-39" x="12.13" y="0">r</tspan><tspan x="14.11" y="0">ical</tspan></text><text class="cls-13" transform="translate(96.31 222.92)">455</text><text class="cls-40" transform="translate(907.72 176.14) rotate(90)"><tspan class="cls-41">S</tspan><tspan x="4.41" y="0">tude</tspan><tspan class="cls-42" x="21.93" y="0">n</tspan><tspan x="26.89" y="0">t </tspan><tspan class="cls-43" x="31.78" y="0">K</tspan><tspan x="36.75" y="0">i</tspan><tspan class="cls-34" x="38.85" y="0">t</tspan><tspan x="41.78" y="0">chen</tspan></text><line class="cls-44" x1="1260.13" y1="304.65" x2="1260.13" y2="411.28"/><line class="cls-44" x1="1257.76" y1="305.16" x2="1257.76" y2="411.28"/><text class="cls-45" transform="translate(1233.19 565.06)">C<tspan class="cls-46" x="12.03" y="0">a</tspan><tspan class="cls-47" x="22.15" y="0">f</tspan><tspan class="cls-46" x="28.01" y="0">e</tspan></text><path class="cls-48" d="M1006.82,781v6.35m0-37.35v24.64" transform="translate(0.49 -0.68)"/><path class="cls-49" d="M1007.55,562.75v12.7m0-31.76V556.4m0-31.76v12.7m0-31.76v12.7m0-31.76v12.71m0-30.06v11" transform="translate(0.49 -0.68)"/><line class="cls-49" x1="1008.04" y1="581.12" x2="1008.04" y2="592.13"/><path class="cls-49" d="M1007.55,705.62v12.7m0-31.76v12.7m0-31.76v12.7m0-31.76v12.7m0-31.76v12.7m0-33.37V623" transform="translate(0.49 -0.68)"/><rect class="cls-50" x="686.6" y="509.31" width="9.7" height="8.46"/><rect class="cls-50" x="687.12" y="562.4" width="9.7" height="8.46"/><rect class="cls-50" x="686.09" y="625.48" width="9.7" height="8.46"/><rect class="cls-50" x="685.67" y="680.6" width="9.7" height="8.46"/><rect class="cls-3" x="249.44" y="532.32" width="15.07" height="10.79"/><rect class="cls-3" x="304.87" y="531.81" width="15.07" height="10.79"/><rect class="cls-3" x="277.1" y="532.14" width="15.07" height="10.79"/><rect class="cls-3" x="888.38" y="235.36" width="15.07" height="10.79"/><rect class="cls-3" x="888.82" y="214.3" width="15.07" height="10.79"/><rect class="cls-51" x="230.47" y="542.22" width="29.33" height="31.74" transform="translate(-291.01 268.29) rotate(-37.97)"/><polygon class="cls-52" points="243.83 578.94 246.57 556.67 224.3 553.92 234.91 545.64 257.19 548.38 254.44 570.66 243.83 578.94"/><rect class="cls-51" x="205.45" y="561.75" width="29.33" height="31.74" transform="matrix(0.79, -0.62, 0.62, 0.79, -308.32, 257.04)"/><polygon class="cls-52" points="218.81 598.47 221.55 576.2 199.28 573.45 209.89 565.17 232.16 567.91 229.42 590.19 218.81 598.47"/><rect class="cls-51" x="180.43" y="581.28" width="29.33" height="31.74" transform="translate(-325.63 245.77) rotate(-37.97)"/><polygon class="cls-52" points="193.79 618 196.53 595.73 174.26 592.98 184.87 584.7 207.15 587.44 204.4 609.72 193.79 618"/><rect class="cls-51" x="155.41" y="600.81" width="29.33" height="31.74" transform="translate(-342.94 234.51) rotate(-37.97)"/><polygon class="cls-52" points="168.77 637.53 171.51 615.25 149.24 612.51 159.85 604.23 182.13 606.97 179.38 629.25 168.77 637.53"/><text class="cls-53" transform="translate(713.65 234.97)">Dish<tspan class="cls-54" x="22.21" y="0"> </tspan><tspan class="cls-55" x="24.32" y="0">W</tspan><tspan class="cls-56" x="34.08" y="0">ashers:</tspan><tspan class="cls-57" x="0" y="14.4">A</tspan><tspan x="7.2" y="14.4">dd/</tspan><tspan class="cls-58" x="24.85" y="14.4">r</tspan><tspan x="28.66" y="14.4">epu</tspan><tspan class="cls-19" x="48.11" y="14.4">r</tspan><tspan x="52.08" y="14.4">pose 2 dedic</tspan><tspan class="cls-23" x="115.23" y="14.4">a</tspan><tspan class="cls-34" x="120.97" y="14.4">t</tspan><tspan x="124.87" y="14.4">ed lines</tspan></text><text x="0.49" y="-0.68"></text><text class="cls-59" transform="translate(128.97 170.35)">4</text><text class="cls-60" transform="translate(241 169.32)">2</text><text class="cls-61" transform="translate(193.72 541)">18</text><text class="cls-62" transform="translate(264.33 616.3)">16</text><text class="cls-63" transform="translate(274.45 709.83)">36</text><g id="lights"><path class="cls-64" d="M269.06,699.14H269c-.5,0-4.34.16-4.34,5,0,2.11,2.57,6,2.57,7h3.67c0-1,2.56-4.88,2.56-7C273.4,699.29,269.56,699.14,269.06,699.14Zm1,10.9h-.4v-2.67h-1.24V710H268c-.18-.47-.45-1-.82-1.8a13.23,13.23,0,0,1-1.52-4.15,3.34,3.34,0,0,1,3.31-3.92h.11a3.34,3.34,0,0,1,3.31,3.92,13.28,13.28,0,0,1-1.51,4.15C270.49,709,270.22,709.58,270,710Z" transform="translate(0.49 -0.68)"/><rect class="cls-64" x="267.67" y="710.92" width="3.67" height="0.96"/><rect class="cls-64" x="268.45" y="712.29" width="1.82" height="0.96"/></g><text class="cls-65" transform="translate(479.25 536.24)">16</text><g id="lights-2" data-name="lights"><path class="cls-66" d="M473.86,525.55h-.11c-.5,0-4.34.16-4.34,5,0,2.11,2.57,6,2.57,7h3.67c0-1,2.56-4.88,2.56-7C478.21,525.7,474.37,525.55,473.86,525.55Zm1,10.9h-.4v-2.67h-1.24v2.67h-.42c-.18-.47-.45-1-.82-1.8a13.23,13.23,0,0,1-1.52-4.15,3.34,3.34,0,0,1,3.31-3.92h.11a3.34,3.34,0,0,1,3.31,3.92,13.28,13.28,0,0,1-1.51,4.15C475.3,535.41,475,536,474.85,536.45Z" transform="translate(0.49 -0.68)"/><rect class="cls-66" x="472.47" y="537.33" width="3.67" height="0.96"/><rect class="cls-66" x="473.39" y="538.81" width="1.82" height="0.96"/></g><text class="cls-67" transform="translate(608.05 534.76)">19</text><g id="lights-3" data-name="lights"><path class="cls-64" d="M602.66,524.06h-.11c-.5,0-4.34.16-4.34,5,0,2.11,2.57,6,2.57,7h3.67c0-1,2.56-4.88,2.56-7C607,524.22,603.16,524.06,602.66,524.06Zm1,10.9h-.4V532.3H602V535h-.42c-.18-.47-.45-1-.82-1.8a13.23,13.23,0,0,1-1.52-4.15,3.34,3.34,0,0,1,3.31-3.92h.11A3.34,3.34,0,0,1,606,529a13.28,13.28,0,0,1-1.51,4.15C604.09,533.93,603.82,534.5,603.65,535Z" transform="translate(0.49 -0.68)"/><rect class="cls-64" x="601.26" y="535.84" width="3.67" height="0.96"/><rect class="cls-64" x="602.19" y="537.32" width="1.82" height="0.96"/></g><text class="cls-53" transform="translate(1045.35 279.58)">1</text><text class="cls-68" transform="translate(548.93 494.24)">10</text><use width="14.16" height="24" transform="translate(539.58 482.86) scale(0.62)" xlink:href="#lights-4"/><g id="lights-6" data-name="lights"><path class="cls-64" d="M187.93,530.43h-.11c-.5,0-4.34.16-4.34,5,0,2.11,2.57,6,2.57,7h3.67c0-1,2.56-4.88,2.56-7C192.27,530.59,188.43,530.43,187.93,530.43Zm1,10.9h-.4v-2.67h-1.24v2.67h-.42c-.18-.47-.45-1-.82-1.8a13.23,13.23,0,0,1-1.52-4.15,3.34,3.34,0,0,1,3.31-3.92h.11a3.34,3.34,0,0,1,3.31,3.92,13.28,13.28,0,0,1-1.51,4.15C189.36,540.29,189.09,540.87,188.92,541.33Z" transform="translate(0.49 -0.68)"/><rect class="cls-64" x="186.53" y="542.21" width="3.67" height="0.96"/><rect class="cls-64" x="187.46" y="543.69" width="1.82" height="0.96"/></g><rect class="cls-69" x="146.52" y="290.65" width="3.58" height="82.64"/><text class="cls-70" transform="translate(124.43 300.83)">2</text><text class="cls-13" transform="translate(269.36 563.23)"><tspan class="cls-17">w</tspan><tspan x="8.71" y="0">es</tspan><tspan class="cls-71" x="19.48" y="0">t</tspan><tspan x="23.38" y="0">e</tspan><tspan class="cls-19" x="29.39" y="0">r</tspan><tspan x="33.36" y="0">n studio</tspan><tspan x="0" y="14.4">408</tspan></text><text class="cls-13" transform="translate(406.65 570.46)">eas<tspan class="cls-18" x="16.55" y="0">t</tspan><tspan x="20.45" y="0">e</tspan><tspan class="cls-72" x="26.46" y="0">r</tspan><tspan class="cls-73" x="30.43" y="0">n studio</tspan><tspan x="0" y="14.4">407</tspan></text><text class="cls-74" transform="translate(357.93 544.28)">Shop <tspan class="cls-75" x="49.94" y="0">A</tspan><tspan class="cls-76" x="62.73" y="0">r</tspan><tspan x="69.38" y="0">ea</tspan></text><text class="cls-13" transform="translate(80.21 171.83)">e<tspan class="cls-72" x="6.01" y="0">r</tspan><tspan x="9.98" y="0">ic</tspan></text><text class="cls-13" transform="translate(57.3 256.69)">ma<tspan class="cls-19" x="15.79" y="0">r</tspan><tspan x="19.76" y="0">ius</tspan></text><text class="cls-13" transform="translate(59.16 210.98)">mimi</text><text class="cls-13" transform="translate(102.03 199.85)"><tspan class="cls-77">k</tspan><tspan class="cls-78" x="5.84" y="0">a</tspan><tspan class="cls-16" x="11.58" y="0">the</tspan><tspan class="cls-19" x="28.22" y="0">r</tspan><tspan x="32.2" y="0">ine</tspan></text><text class="cls-13" transform="translate(96.31 222.92)">455</text><text class="cls-20" transform="translate(67.65 341.29)"><tspan class="cls-79">t<tspan class="cls-22" x="5.85" y="0">ech staff</tspan></tspan><tspan x="0" y="21.6">456</tspan></text><text class="cls-13" transform="translate(108.94 379.63)"><tspan class="cls-80">r</tspan><tspan x="3.8" y="0">ob</tspan></text><text class="cls-13" transform="translate(71.78 303.61)"><tspan class="cls-77">k</tspan><tspan x="5.84" y="0">a</tspan><tspan class="cls-19" x="11.63" y="0">r</tspan><tspan x="15.6" y="0">l</tspan></text><text class="cls-13" transform="translate(182.65 255.45)">megan</text><text class="cls-13" transform="translate(176.94 283.88)">455a</text><text class="cls-53" transform="translate(421.03 268.21)">1</text><g id="lights-7" data-name="lights"><path class="cls-81" d="M123.58,159.66h-.11c-.5,0-4.34.16-4.34,5,0,2.11,2.57,6,2.57,7h3.67c0-1,2.56-4.88,2.56-7C127.93,159.81,124.09,159.66,123.58,159.66Zm1,10.9h-.4v-2.67h-1.24v2.67h-.42c-.18-.47-.45-1-.82-1.8a13.23,13.23,0,0,1-1.52-4.15,3.34,3.34,0,0,1,3.31-3.92h.11a3.34,3.34,0,0,1,3.31,3.92,13.28,13.28,0,0,1-1.51,4.15C125,169.52,124.74,170.09,124.57,170.56Z" transform="translate(0.49 -0.68)"/><rect class="cls-81" x="122.19" y="171.44" width="3.67" height="0.96"/><rect class="cls-81" x="123.11" y="172.92" width="1.82" height="0.96"/></g><use width="14.16" height="24" transform="translate(115.22 289.86) scale(0.62)" xlink:href="#lights-4"/><use width="14.16" height="24" transform="translate(1036 268.21) scale(0.62)" xlink:href="#lights-4"/><use width="14.16" height="24" transform="translate(411.68 256.83) scale(0.62)" xlink:href="#lights-4"/><text class="cls-13" transform="translate(186.63 191.93)">geo<tspan class="cls-82" x="19.31" y="0">r</tspan><tspan x="23.14" y="0">ge</tspan><tspan x="0" y="14.4">454</tspan></text><use width="14.16" height="24" transform="translate(231.65 157.94) scale(0.62)" xlink:href="#lights-4"/><text class="cls-13" transform="translate(262.14 190.95)">mido<tspan class="cls-19" x="26.17" y="0">r</tspan><tspan x="30.14" y="0">i</tspan><tspan x="0" y="14.4">453</tspan></text><text class="cls-60" transform="translate(300.05 168.86)">2</text><use width="14.16" height="24" transform="translate(290.7 157.49) scale(0.62)" xlink:href="#lights-4"/><text class="cls-13" transform="translate(318.66 192.48)">sh<tspan class="cls-83" x="11.41" y="0">a</tspan><tspan x="17.1" y="0">wn</tspan><tspan x="0" y="14.4">452</tspan></text><text class="cls-60" transform="translate(353.31 168.86)">2</text><use width="14.16" height="24" transform="translate(343.96 157.49) scale(0.62)" xlink:href="#lights-4"/><text class="cls-13" transform="translate(372.65 190.98)">nan<tspan class="cls-84" x="19.1" y="0">c</tspan><tspan x="24.7" y="0">y h</tspan><tspan x="0" y="14.4">451b</tspan></text><text class="cls-85" transform="translate(406.37 169.32)">7</text><use width="14.16" height="24" transform="translate(397.02 157.94) scale(0.62)" xlink:href="#lights-4"/><text class="cls-13" transform="translate(430.65 190.48)">ma<tspan class="cls-19" x="15.79" y="0">r</tspan><tspan x="19.76" y="0">ina</tspan><tspan x="0" y="14.4">451a</tspan></text><text class="cls-85" transform="translate(461.29 168.49)">7</text><use width="14.16" height="24" transform="translate(451.94 157.11) scale(0.62)" xlink:href="#lights-4"/><text class="cls-85" transform="translate(518.27 168.08)">7</text><use width="14.16" height="24" transform="translate(508.92 156.7) scale(0.62)" xlink:href="#lights-4"/><text class="cls-13" transform="translate(481.65 190.48)">dan s<tspan x="0" y="14.4">449</tspan></text><text class="cls-13" transform="translate(544.15 189.98)">dan<tspan class="cls-86" x="19.21" y="0">n</tspan><tspan x="25.72" y="0">y r</tspan><tspan x="0" y="14.4">448</tspan></text><text class="cls-85" transform="translate(583.61 167.01)">7</text><use width="14.16" height="24" transform="translate(574.26 155.63) scale(0.62)" xlink:href="#lights-4"/><text class="cls-13" transform="translate(615.64 187.47)"><tspan class="cls-18">t</tspan><tspan x="3.9" y="0">om </tspan><tspan x="0" y="14.4">and cl</tspan><tspan class="cls-82" x="29.96" y="14.4">a</tspan><tspan class="cls-16" x="35.65" y="14.4">y</tspan><tspan x="0" y="28.8">446</tspan></text><text class="cls-85" transform="translate(677.65 166.84)">7</text><use width="14.16" height="24" transform="translate(668.3 155.46) scale(0.62)" xlink:href="#lights-4"/><text class="cls-13" transform="translate(210.65 326.84)">go<tspan class="cls-17" x="13.3" y="0">r</tspan><tspan x="17.1" y="0">die</tspan></text><text class="cls-87" transform="translate(184.85 327.87)">4</text><use width="14.16" height="24" transform="translate(175.49 316.5) scale(0.62)" xlink:href="#lights-4"/><text class="cls-13" transform="translate(365.36 334.69)">ma<tspan class="cls-19" x="15.79" y="0">r</tspan><tspan x="19.76" y="0">lon</tspan></text><text class="cls-87" transform="translate(437.13 310.84)">4</text><use width="14.16" height="24" transform="translate(427.78 299.46) scale(0.62)" xlink:href="#lights-4"/><text class="cls-88" transform="translate(474.57 360.91)">er<tspan x="0" y="28.8">446</tspan></text><text class="cls-87" transform="translate(511.04 340.67)">4</text><use width="14.16" height="24" transform="translate(501.69 329.3) scale(0.62)" xlink:href="#lights-4"/><text class="cls-13" transform="translate(590.95 382.17)"><tspan class="cls-25">R<tspan class="cls-16" x="6.58" y="0">m 50</tspan></tspan><tspan x="0" y="14.4">447</tspan></text><text class="cls-89" transform="translate(615.51 344.8)">15</text><g id="lights-36" data-name="lights"><path class="cls-90" d="M610.12,334.11H610c-.5,0-4.34.16-4.34,5,0,2.11,2.57,6,2.57,7h3.67c0-1,2.56-4.88,2.56-7C614.47,334.27,610.63,334.11,610.12,334.11Zm1,10.9h-.4v-2.67h-1.24V345H609c-.18-.47-.45-1-.82-1.8a13.23,13.23,0,0,1-1.52-4.15,3.34,3.34,0,0,1,3.31-3.92h.11a3.34,3.34,0,0,1,3.31,3.92,13.28,13.28,0,0,1-1.51,4.15C611.56,344,611.28,344.55,611.11,345Z" transform="translate(0.49 -0.68)"/><rect class="cls-90" x="608.73" y="345.89" width="3.67" height="0.96"/><rect class="cls-90" x="609.65" y="347.37" width="1.82" height="0.96"/></g><text class="cls-30" transform="translate(68.89 496.19)">CNC <tspan class="cls-19" x="24.36" y="0">R</tspan><tspan x="30.86" y="0">ou</tspan><tspan class="cls-18" x="44.06" y="0">t</tspan><tspan x="47.96" y="0">er</tspan></text><text class="cls-13" transform="translate(85.3 570.87)">p<tspan class="cls-91" x="6.83" y="0">o</tspan><tspan class="cls-17" x="13.33" y="0">w</tspan><tspan x="22.04" y="0">e</tspan><tspan class="cls-92" x="28.06" y="0">r</tspan><tspan class="cls-73" x="31.92" y="0">-</tspan><tspan class="cls-18" x="0" y="14.4">t</tspan><tspan x="3.9" y="14.4">ools</tspan><tspan x="0" y="28.8">shop</tspan><tspan x="0" y="43.2">409</tspan></text><text class="cls-93" transform="translate(97.31 541.63)">20</text><g id="lights-37" data-name="lights"><path class="cls-64" d="M91.92,530.94h-.11c-.5,0-4.34.16-4.34,5,0,2.11,2.57,6,2.57,7h3.67c0-1,2.56-4.88,2.56-7C96.27,531.1,92.43,530.94,91.92,530.94Zm1,10.9h-.4v-2.67H91.27v2.67h-.42c-.18-.47-.45-1-.82-1.8a13.23,13.23,0,0,1-1.52-4.15A3.34,3.34,0,0,1,91.82,532h.11a3.34,3.34,0,0,1,3.31,3.92A13.28,13.28,0,0,1,93.72,540C93.36,540.8,93.08,541.38,92.91,541.84Z" transform="translate(0.49 -0.68)"/><rect class="cls-64" x="90.53" y="542.72" width="3.67" height="0.96"/><rect class="cls-64" x="91.45" y="544.2" width="1.82" height="0.96"/></g><text class="cls-53" transform="translate(224.49 490.32)">Laser <tspan class="cls-31" x="28.68" y="0">C</tspan><tspan class="cls-16" x="35.5" y="0">ut</tspan><tspan class="cls-18" x="46.08" y="0">t</tspan><tspan class="cls-16" x="49.98" y="0">ers:</tspan><tspan class="cls-26" x="0" y="14.4">M</tspan><tspan class="cls-37" x="9.72" y="14.4">o</tspan><tspan class="cls-80" x="16.22" y="14.4">v</tspan><tspan x="21.88" y="14.4">e 1 dedic</tspan><tspan class="cls-23" x="66.86" y="14.4">a</tspan><tspan class="cls-18" x="72.6" y="14.4">t</tspan><tspan x="76.5" y="14.4">ed ci</tspan><tspan class="cls-80" x="100.01" y="14.4">r</tspan><tspan x="103.81" y="14.4">cuit @ 115</tspan><tspan class="cls-78" x="154.98" y="14.4">v</tspan><tspan x="160.7" y="14.4">ac</tspan><tspan class="cls-57"><tspan x="0" y="28.8">A</tspan><tspan class="cls-73" x="7.2" y="28.8">dd 2 mo</tspan><tspan class="cls-17" x="48.58" y="28.8">r</tspan><tspan class="cls-16" x="52.38" y="28.8">e: 1 @ 208-240</tspan><tspan class="cls-23" x="124.13" y="28.8">v</tspan><tspan class="cls-73" x="129.85" y="28.8">a</tspan><tspan class="cls-80" x="135.63" y="28.8">c</tspan><tspan class="cls-73" x="140.89" y="28.8">, 1 @ 115</tspan><tspan class="cls-23" x="184.47" y="28.8">v</tspan><tspan class="cls-73" x="190.2" y="28.8">ac</tspan></tspan></text><g id="lights-38" data-name="lights"><path class="cls-66" d="M258.94,605.6h-.11c-.5,0-4.34.16-4.34,5,0,2.11,2.57,6,2.57,7h3.67c0-1,2.56-4.88,2.56-7C263.29,605.76,259.45,605.6,258.94,605.6Zm1,10.9h-.4v-2.67h-1.24v2.67h-.42c-.18-.47-.45-1-.82-1.8a13.23,13.23,0,0,1-1.52-4.15,3.34,3.34,0,0,1,3.31-3.92h.11a3.34,3.34,0,0,1,3.31,3.92,13.28,13.28,0,0,1-1.51,4.15C260.38,615.47,260.1,616,259.93,616.51Z" transform="translate(0.49 -0.68)"/><rect class="cls-66" x="257.55" y="617.38" width="3.67" height="0.96"/><rect class="cls-66" x="258.47" y="618.86" width="1.82" height="0.96"/></g><text x="0.49" y="-0.68"></text><text x="0.49" y="-0.68"></text><rect class="cls-94" x="1210.63" y="769.68" width="133.05" height="97.85"/><rect class="cls-95" x="1218.73" y="757.8" width="75.36" height="24.16"/><text class="cls-20" transform="translate(1229.78 776.39)"><tspan class="cls-96">L</tspan><tspan x="8.24" y="0">egend</tspan></text><use width="14.16" height="24" transform="translate(1243.98 795.93) scale(0.62)" xlink:href="#lights-4"/><text class="cls-97" transform="translate(1255.19 809.87)">Lig<tspan class="cls-98" x="26.56" y="0">h</tspan><tspan x="38.13" y="0">ts</tspan></text><text class="cls-97" transform="translate(1218.73 833.91)">(<tspan class="cls-99" x="5.96" y="0">P</tspan><tspan x="16.59" y="0">anel L</tspan><tspan class="cls-100" x="68.21" y="0">P</tspan><tspan class="cls-101" x="79.02" y="0">-4-1)</tspan></text><rect class="cls-102" x="1164.75" y="305.16" width="4.13" height="86.09"/></g></svg>