<svg id="Layer_3" data-name="Layer 3" xmlns="http://www.w3.org/2000/svg" width="1370.99" height="932.42" viewBox="0 0 1370.99 932.42"><defs><style>.cls-1,.cls-4,.cls-6{fill:#fff;}.cls-2{fill:#f6ec13;}.cls-14,.cls-3,.cls-5{fill:#70cbcf;}.cls-4,.cls-5,.cls-6,.cls-7,.cls-8{stroke:#70cbcf;stroke-miterlimit:10;}.cls-4{stroke-width:4px;}.cls-5,.cls-6{stroke-width:2px;}.cls-20,.cls-7,.cls-8{fill:none;}.cls-7{stroke-dasharray:8 2 1 2;}.cls-8{stroke-dasharray:8;}.cls-14,.cls-9{font-size:12px;font-family:MyriadPro-Regular, Myriad Pro;}.cls-9{fill:#231f20;}.cls-10{letter-spacing:0em;}.cls-11{letter-spacing:0em;}.cls-12{letter-spacing:-0.01em;}.cls-13{letter-spacing:-0.01em;}.cls-15{letter-spacing:-0.03em;}.cls-16{letter-spacing:0.01em;}.cls-17{letter-spacing:0em;}.cls-18{letter-spacing:0em;}.cls-19{letter-spacing:-0.01em;}.cls-20{stroke:#1a1031;}</style></defs><title>switches</title><rect class="cls-1" x="41.49" y="779.32" width="141.64" height="84.07"/><rect class="cls-2" x="501.2" y="523.32" width="5.29" height="40"/><rect class="cls-2" x="501.2" y="587.82" width="5.29" height="40"/><rect class="cls-2" x="448.84" y="523.32" width="5.29" height="40"/><rect class="cls-2" x="448.84" y="587.82" width="5.29" height="40"/><rect class="cls-2" x="396.49" y="523.32" width="5.29" height="40"/><rect class="cls-2" x="210.63" y="490.32" width="40" height="5.29"/><rect class="cls-2" x="294.63" y="490.32" width="40" height="5.29"/><rect class="cls-2" x="378.63" y="490.32" width="40" height="5.29"/><rect class="cls-2" x="462.63" y="490.32" width="40" height="5.29"/><rect class="cls-2" x="383.84" y="397.82" width="5.29" height="40"/><rect class="cls-2" x="397.63" y="364.82" width="40" height="5.29"/><rect class="cls-2" x="163.74" y="324.82" width="5.29" height="40"/><rect class="cls-2" x="178.13" y="314.32" width="40" height="5.29"/><rect class="cls-2" x="396.49" y="587.82" width="5.29" height="40"/><rect class="cls-2" x="488.12" y="333.32" width="5.29" height="40"/><rect class="cls-2" x="488.12" y="397.82" width="5.29" height="40"/><rect class="cls-2" x="657.78" y="523.32" width="5.29" height="40"/><rect class="cls-2" x="657.78" y="587.82" width="5.29" height="40"/><rect class="cls-2" x="605.42" y="523.32" width="5.29" height="40"/><rect class="cls-2" x="605.42" y="587.82" width="5.29" height="40"/><rect class="cls-2" x="553.06" y="523.32" width="5.29" height="40"/><rect class="cls-2" x="553.06" y="587.82" width="5.29" height="40"/><rect class="cls-2" x="982.2" y="333.32" width="5.29" height="40"/><rect class="cls-2" x="982.2" y="397.82" width="5.29" height="40"/><rect class="cls-2" x="929.84" y="333.32" width="5.29" height="40"/><rect class="cls-2" x="929.84" y="397.82" width="5.29" height="40"/><rect class="cls-2" x="877.48" y="333.32" width="5.29" height="40"/><rect class="cls-2" x="877.48" y="397.82" width="5.29" height="40"/><rect class="cls-2" x="185.34" y="503.32" width="5.29" height="40"/><rect class="cls-2" x="185.34" y="567.82" width="5.29" height="40"/><rect class="cls-2" x="152.99" y="503.32" width="5.29" height="40"/><rect class="cls-2" x="152.99" y="567.82" width="5.29" height="40"/><rect class="cls-2" x="111.49" y="493.32" width="5.29" height="40"/><rect class="cls-2" x="111.49" y="553.98" width="5.29" height="40"/><rect class="cls-2" x="79.13" y="493.32" width="5.29" height="40"/><rect class="cls-2" x="79.13" y="553.98" width="5.29" height="40"/><rect class="cls-2" x="111.49" y="614.65" width="5.29" height="40"/><rect class="cls-2" x="79.13" y="614.65" width="5.29" height="40"/><circle class="cls-2" cx="190.63" cy="626.15" r="7.5"/><circle class="cls-2" cx="238.13" cy="626.15" r="7.5"/><circle class="cls-2" cx="285.63" cy="626.15" r="7.5"/><circle class="cls-2" cx="285.63" cy="581.48" r="7.5"/><circle class="cls-2" cx="334.63" cy="581.48" r="7.5"/><circle class="cls-2" cx="540.63" cy="492.96" r="7.5"/><circle class="cls-2" cx="615.56" cy="492.96" r="7.5"/><circle class="cls-2" cx="690.5" cy="492.96" r="7.5"/><circle class="cls-2" cx="765.43" cy="492.96" r="7.5"/><circle class="cls-2" cx="736.1" cy="550.82" r="7.5"/><circle class="cls-2" cx="840.36" cy="492.96" r="7.5"/><circle class="cls-2" cx="915.3" cy="492.96" r="7.5"/><circle class="cls-2" cx="990.23" cy="492.96" r="7.5"/><circle class="cls-2" cx="1065.16" cy="492.96" r="7.5"/><circle class="cls-2" cx="1140.1" cy="492.96" r="7.5"/><circle class="cls-2" cx="1215.03" cy="492.96" r="7.5"/><circle class="cls-2" cx="1289.96" cy="492.96" r="7.5"/><circle class="cls-2" cx="281.15" cy="273.82" r="7.5"/><circle class="cls-2" cx="353.52" cy="273.82" r="7.5"/><circle class="cls-2" cx="425.89" cy="273.82" r="7.5"/><circle class="cls-2" cx="498.26" cy="273.82" r="7.5"/><circle class="cls-2" cx="570.63" cy="273.82" r="7.5"/><circle class="cls-2" cx="643" cy="273.82" r="7.5"/><circle class="cls-2" cx="715.37" cy="273.82" r="7.5"/><circle class="cls-2" cx="787.74" cy="273.82" r="7.5"/><circle class="cls-2" cx="860.11" cy="273.82" r="7.5"/><circle class="cls-2" cx="715.37" cy="207.32" r="7.5"/><circle class="cls-2" cx="787.74" cy="207.32" r="7.5"/><circle class="cls-2" cx="787.74" cy="406.57" r="7.5"/><circle class="cls-2" cx="787.74" cy="340.07" r="7.5"/><circle class="cls-2" cx="860.11" cy="207.32" r="7.5"/><circle class="cls-2" cx="932.48" cy="273.82" r="7.5"/><circle class="cls-2" cx="1004.85" cy="273.82" r="7.5"/><circle class="cls-2" cx="1077.22" cy="273.82" r="7.5"/><circle class="cls-2" cx="1149.6" cy="273.82" r="7.5"/><circle class="cls-2" cx="1140.1" cy="554.63" r="7.5"/><circle class="cls-2" cx="1215.03" cy="554.63" r="7.5"/><circle class="cls-2" cx="1289.96" cy="554.63" r="7.5"/><circle class="cls-2" cx="1140.1" cy="616.29" r="7.5"/><circle class="cls-2" cx="1215.03" cy="616.29" r="7.5"/><circle class="cls-2" cx="1170.06" cy="662.29" r="7.5"/><circle class="cls-2" cx="1245" cy="662.29" r="7.5"/><circle class="cls-2" cx="1289.96" cy="616.29" r="7.5"/><rect class="cls-2" x="765.43" y="537.98" width="5.29" height="40"/><rect class="cls-2" x="765.43" y="598.65" width="5.29" height="40"/><rect class="cls-2" x="905.15" y="558.46" width="5.29" height="40"/><rect class="cls-2" x="962.53" y="517.98" width="5.29" height="40"/><rect class="cls-2" x="905.15" y="619.13" width="5.29" height="40"/><rect class="cls-2" x="765.43" y="659.32" width="5.29" height="40"/><rect class="cls-2" x="716.1" y="657.32" width="40" height="5.29"/><rect class="cls-2" x="716.1" y="696.67" width="40" height="5.29"/><rect class="cls-2" x="832.86" y="565.5" width="40" height="5.29"/><rect class="cls-2" x="832.86" y="605.08" width="40" height="5.29"/><rect class="cls-2" x="832.86" y="644.67" width="40" height="5.29"/><rect class="cls-3" x="512.99" y="511.32" width="9" height="18"/><rect class="cls-3" x="528.63" y="518.32" width="9" height="18"/><rect class="cls-3" x="201.63" y="471.82" width="18" height="9"/><rect class="cls-3" x="312.49" y="626.15" width="18" height="9"/><rect class="cls-3" x="693.5" y="520.32" width="9" height="18"/><rect class="cls-3" x="844.11" y="417.82" width="9" height="18"/><rect class="cls-3" x="993.23" y="520.32" width="9" height="18"/><rect class="cls-3" x="1170.49" y="257.32" width="9" height="18"/><rect class="cls-3" x="989.83" y="232.65" width="9" height="18"/><rect class="cls-2" x="1181.99" y="173.44" width="30.51" height="5.29"/><rect class="cls-2" x="1181.99" y="218.56" width="30.51" height="5.29"/><rect class="cls-2" x="1181.99" y="263.67" width="30.51" height="5.29"/><rect class="cls-2" x="1216.31" y="173.44" width="30.51" height="5.29"/><rect class="cls-2" x="1216.31" y="218.56" width="30.51" height="5.29"/><rect class="cls-2" x="1216.31" y="263.67" width="30.51" height="5.29"/><rect class="cls-2" x="1250.64" y="173.44" width="30.51" height="5.29"/><rect class="cls-2" x="1250.64" y="218.56" width="30.51" height="5.29"/><rect class="cls-2" x="1250.64" y="263.67" width="30.51" height="5.29"/><rect class="cls-2" x="1284.97" y="173.44" width="30.51" height="5.29"/><rect class="cls-2" x="1284.97" y="218.56" width="30.51" height="5.29"/><rect class="cls-2" x="1284.97" y="263.67" width="30.51" height="5.29"/><rect class="cls-3" x="950.99" y="318.82" width="18" height="9"/><rect class="cls-3" x="614.06" y="318.82" width="18" height="9"/><rect class="cls-3" x="448.99" y="314.32" width="9" height="18"/><rect class="cls-3" x="238.49" y="296.32" width="9" height="18"/><rect class="cls-4" x="476.49" y="662.6" width="82" height="46.67"/><rect class="cls-5" x="485.65" y="667.94" width="9" height="18"/><rect class="cls-6" x="485.65" y="685.94" width="9" height="18"/><rect class="cls-5" x="514.99" y="667.94" width="9" height="18"/><rect class="cls-6" x="514.99" y="685.94" width="9" height="18"/><rect class="cls-6" x="544.32" y="667.94" width="9" height="36"/><line class="cls-7" x1="517.49" y1="529.32" x2="517.49" y2="659.96"/><rect class="cls-8" x="381.99" y="513.32" width="32" height="124.5"/><rect class="cls-8" x="435.49" y="513.32" width="32" height="124.5"/><line class="cls-8" x1="401.77" y1="637.82" x2="488.12" y2="670.82"/><line class="cls-8" x1="451.49" y1="637.82" x2="514.99" y2="667.94"/><rect class="cls-4" x="1171.5" y="79.01" width="60.07" height="46.67"/><rect class="cls-5" x="1180.67" y="84.34" width="9" height="18"/><rect class="cls-6" x="1180.67" y="102.34" width="9" height="18"/><rect class="cls-5" x="1210" y="84.34" width="9" height="18"/><rect class="cls-6" x="1210" y="102.34" width="9" height="18"/><rect class="cls-4" x="992.83" y="79.01" width="60.07" height="46.67"/><rect class="cls-5" x="1002" y="84.34" width="9" height="18"/><rect class="cls-6" x="1002" y="102.34" width="9" height="18"/><rect class="cls-5" x="1031.33" y="84.34" width="9" height="18"/><rect class="cls-6" x="1031.33" y="102.34" width="9" height="18"/><rect class="cls-8" x="1179.49" y="165.32" width="67.34" height="108.5"/><rect class="cls-8" x="1250.64" y="165.32" width="64.84" height="108.5"/><line class="cls-8" x1="1185.17" y1="125.68" x2="1201.54" y2="165.32"/><line class="cls-8" x1="1214.5" y1="125.68" x2="1272.49" y2="165.32"/><polyline class="cls-8" points="1130.82 176.09 1006.5 128.32 1006.5 176.09"/><line class="cls-7" x1="1174.99" y1="257.32" x2="1174.99" y2="125.68"/><line class="cls-7" x1="994.33" y1="233.98" x2="994.33" y2="102.34"/><rect class="cls-8" x="156.01" y="298.97" width="72.47" height="71.5"/><line class="cls-8" x1="238.49" y1="305.32" x2="228.49" y2="307.82"/><rect class="cls-8" x="474.99" y="327.82" width="30.78" height="115.5"/><line class="cls-8" x1="457.99" y1="327.82" x2="474.99" y2="341.32"/><rect class="cls-2" x="59.13" y="798.03" width="40" height="5.29"/><text class="cls-9" transform="translate(136.49 803.32)">Lig<tspan class="cls-10" x="15.18" y="0">h</tspan><tspan class="cls-11" x="21.79" y="0">t</tspan></text><text class="cls-9" transform="translate(84.42 838.65)"><tspan class="cls-12">S</tspan><tspan x="5.82" y="0">wi</tspan><tspan class="cls-13" x="17.46" y="0">t</tspan><tspan x="21.36" y="0">ch</tspan></text><circle class="cls-2" cx="116.77" cy="800.67" r="7.5"/><rect class="cls-3" x="59.13" y="832.15" width="18" height="9"/><rect class="cls-2" x="996.56" y="181" width="40" height="5.29"/><rect class="cls-2" x="1057.22" y="181" width="40" height="5.29"/><rect class="cls-2" x="996.56" y="213.35" width="40" height="5.29"/><rect class="cls-2" x="1057.22" y="213.35" width="40" height="5.29"/><rect class="cls-2" x="1117.89" y="181" width="40" height="5.29"/><rect class="cls-2" x="1117.89" y="213.35" width="40" height="5.29"/><circle class="cls-2" cx="1053.43" cy="193.72" r="4"/><circle class="cls-2" cx="1101.22" cy="193.72" r="4"/><circle class="cls-2" cx="1053.43" cy="206.57" r="4"/><circle class="cls-2" cx="1101.22" cy="206.57" r="4"/><rect class="cls-8" x="996.56" y="176.08" width="40.61" height="46.65"/><rect class="cls-8" x="1116.59" y="176.08" width="40.61" height="46.65"/><rect class="cls-8" x="1056.92" y="176.08" width="40.61" height="46.65"/><line class="cls-8" x1="1036.56" y1="128.32" x2="1071.15" y2="176.08"/><rect class="cls-4" x="1057.1" y="79.01" width="19.79" height="46.67"/><rect class="cls-6" x="1062.49" y="84.34" width="9" height="36"/><polyline class="cls-8" points="1101.22 193.72 1068.66 128.32 1053.43 193.72"/><line class="cls-8" x1="844.11" y1="417.82" x2="643" y2="281.32"/><rect class="cls-2" x="667.85" y="333.32" width="5.29" height="40"/><rect class="cls-2" x="667.85" y="397.82" width="5.29" height="40"/><rect class="cls-2" x="615.49" y="333.32" width="5.29" height="40"/><rect class="cls-2" x="615.49" y="397.82" width="5.29" height="40"/><rect class="cls-2" x="563.13" y="333.32" width="5.29" height="40"/><rect class="cls-2" x="563.13" y="397.82" width="5.29" height="40"/><rect class="cls-4" x="683" y="390.73" width="60.07" height="46.67"/><rect class="cls-5" x="692.17" y="396.07" width="9" height="18"/><rect class="cls-6" x="692.17" y="414.07" width="9" height="18"/><rect class="cls-5" x="721.5" y="396.07" width="9" height="18"/><rect class="cls-6" x="721.5" y="414.07" width="9" height="18"/><rect class="cls-4" x="747.27" y="390.73" width="19.79" height="46.67"/><rect class="cls-6" x="752.66" y="396.07" width="9" height="36"/><line class="cls-7" x1="625.82" y1="327.82" x2="681.24" y2="388.32"/><rect class="cls-8" x="558.35" y="332.32" width="120.64" height="41"/><rect class="cls-8" x="558.35" y="397.32" width="120.64" height="41"/><line class="cls-8" x1="678.99" y1="342.57" x2="728.6" y2="390.73"/><line class="cls-8" x1="692.17" y1="409.32" x2="678.99" y2="409.32"/><circle class="cls-2" cx="544.63" cy="358.07" r="4"/><circle class="cls-2" cx="544.63" cy="385.57" r="4"/><circle class="cls-2" cx="544.63" cy="413.07" r="4"/><path class="cls-8" d="M757.44,441S717,472.69,627.56,462.56s-83.41-44.81-83.41-44.81" transform="translate(0.49 -0.68)"/><rect class="cls-3" x="1225.21" y="467.32" width="15.97" height="9"/><text class="cls-14" transform="translate(1198.49 463.87)"><tspan class="cls-15">W</tspan><tspan x="9.76" y="0">ood </tspan><tspan class="cls-16" x="32.24" y="0">M</tspan><tspan class="cls-17" x="42.04" y="0">i</tspan><tspan class="cls-18" x="44.84" y="0">r</tspan><tspan class="cls-19" x="48.82" y="0">r</tspan><tspan x="52.62" y="0">or</tspan></text><rect class="cls-20" x="0.5" y="0.5" width="1369.99" height="931.42"/></svg>